<svg xmlns="http://www.w3.org/2000/svg" x="0px" y="0px" width="100" height="100" viewBox="0 0 48 48">
<linearGradient id="Z1feGKk0fhwRayMlCOG9Ha_heybTkWFZ8KQ_gr1" x1="-9.533" x2="67.842" y1="46.516" y2="1.843" gradientUnits="userSpaceOnUse"><stop offset="0" stop-color="#262626" stop-opacity="0"></stop><stop offset="1" stop-color="#262626" stop-opacity=".8"></stop></linearGradient><path fill="url(#Z1feGKk0fhwRayMlCOG9Ha_heybTkWFZ8KQ_gr1)" d="M39,11.87V40c0,2.21-1.79,4-4,4H9V12h29C38.35,12,38.68,11.96,39,11.87z"></path><linearGradient id="Z1feGKk0fhwRayMlCOG9Hb_heybTkWFZ8KQ_gr2" x1="24" x2="24" y1="-19.323" y2="10.755" gradientUnits="userSpaceOnUse"><stop offset="0" stop-color="#262626" stop-opacity="0"></stop><stop offset="1" stop-color="#262626" stop-opacity=".8"></stop></linearGradient><path fill="url(#Z1feGKk0fhwRayMlCOG9Hb_heybTkWFZ8KQ_gr2)" d="M30,7H18V5c0-1.657,1.343-3,3-3h9V7z"></path><linearGradient id="Z1feGKk0fhwRayMlCOG9Hc_heybTkWFZ8KQ_gr3" x1="24" x2="24" y1=".595" y2="59.394" gradientUnits="userSpaceOnUse"><stop offset="0" stop-color="#262626" stop-opacity="0"></stop><stop offset="1" stop-color="#262626" stop-opacity=".8"></stop></linearGradient><path fill="url(#Z1feGKk0fhwRayMlCOG9Hc_heybTkWFZ8KQ_gr3)" d="M26,40h-4V18c0-1.105,0.895-2,2-2h0c1.105,0,2,0.895,2,2V40z M34,18c0-1.105-0.895-2-2-2h0	c-1.105,0-2,0.895-2,2v22h4V18z M18,18c0-1.105-0.895-2-2-2h0c-1.105,0-2,0.895-2,2v22h4V18z"></path><linearGradient id="Z1feGKk0fhwRayMlCOG9Hd_heybTkWFZ8KQ_gr4" x1="-2.683" x2="35.509" y1="-36.716" y2="29.435" gradientUnits="userSpaceOnUse"><stop offset="0" stop-color="#262626" stop-opacity="0"></stop><stop offset="1" stop-color="#262626" stop-opacity=".8"></stop></linearGradient><path fill="url(#Z1feGKk0fhwRayMlCOG9Hd_heybTkWFZ8KQ_gr4)" d="M38,12H6v-1c0-2.209,1.791-4,4-4h32v1C42,10.209,40.209,12,38,12z"></path>
</svg>